<?xml version="1.0" encoding="UTF-8"?>
<svg xmlns="http://www.w3.org/2000/svg" viewBox="0 0 1024 1024" width="1024" height="1024">
  <defs>
    <radialGradient id="bg" cx="50%" cy="50%" r="60%">
      <stop offset="0%" stop-color="#141430"/>
      <stop offset="100%" stop-color="#0a0a1a"/>
    </radialGradient>
    <linearGradient id="g1" x1="0%" y1="0%" x2="100%" y2="100%">
      <stop offset="0%" stop-color="#06d6d4"/>
      <stop offset="50%" stop-color="#4f8fff"/>
      <stop offset="100%" stop-color="#a855f7"/>
    </linearGradient>
    <linearGradient id="g2" x1="0%" y1="0%" x2="100%" y2="100%">
      <stop offset="0%" stop-color="#06d6d4" stop-opacity="0.5"/>
      <stop offset="100%" stop-color="#a855f7" stop-opacity="0.5"/>
    </linearGradient>
    <filter id="gl"><feGaussianBlur stdDeviation="8" result="b"/><feMerge><feMergeNode in="b"/><feMergeNode in="SourceGraphic"/></feMerge></filter>
    <filter id="ng"><feGaussianBlur stdDeviation="4" result="b"/><feMerge><feMergeNode in="b"/><feMergeNode in="SourceGraphic"/></feMerge></filter>
  </defs>
  <rect x="20" y="20" width="984" height="984" rx="200" ry="200" fill="url(#bg)"/>
  <g transform="translate(512,490) scale(0.62)" filter="url(#gl)">
    <path d="M0,-280 C60,-300 180,-320 240,-240 C300,-160 320,-80 300,0 C330,40 340,100 300,160 C260,220 200,260 160,240 C120,280 60,300 0,280 L0,320" fill="none" stroke="url(#g1)" stroke-width="8" stroke-linecap="round"/>
    <path d="M0,-280 C-60,-300 -180,-320 -240,-240 C-300,-160 -320,-80 -300,0 C-330,40 -340,100 -300,160 C-260,220 -200,260 -160,240 C-120,280 -60,300 0,280 L0,320" fill="none" stroke="url(#g1)" stroke-width="8" stroke-linecap="round"/>
    <line x1="0" y1="-260" x2="0" y2="280" stroke="url(#g2)" stroke-width="4" stroke-linecap="round"/>
    <path d="M40,-200 Q120,-180 180,-120" fill="none" stroke="url(#g2)" stroke-width="4" stroke-linecap="round"/>
    <path d="M30,-80 Q100,-60 200,-20" fill="none" stroke="url(#g2)" stroke-width="4" stroke-linecap="round"/>
    <path d="M20,40 Q80,80 160,100" fill="none" stroke="url(#g2)" stroke-width="4" stroke-linecap="round"/>
    <path d="M30,160 Q80,180 140,200" fill="none" stroke="url(#g2)" stroke-width="4" stroke-linecap="round"/>
    <path d="M-40,-200 Q-120,-180 -180,-120" fill="none" stroke="url(#g2)" stroke-width="4" stroke-linecap="round"/>
    <path d="M-30,-80 Q-100,-60 -200,-20" fill="none" stroke="url(#g2)" stroke-width="4" stroke-linecap="round"/>
    <path d="M-20,40 Q-80,80 -160,100" fill="none" stroke="url(#g2)" stroke-width="4" stroke-linecap="round"/>
    <path d="M-30,160 Q-80,180 -140,200" fill="none" stroke="url(#g2)" stroke-width="4" stroke-linecap="round"/>
    <g filter="url(#ng)">
      <circle cx="0" cy="-280" r="6" fill="white"/><circle cx="160" cy="-240" r="5" fill="white"/>
      <circle cx="-160" cy="-240" r="5" fill="white"/><circle cx="220" cy="-100" r="5" fill="white"/>
      <circle cx="-220" cy="-100" r="5" fill="white"/><circle cx="240" cy="40" r="5" fill="white"/>
      <circle cx="-240" cy="40" r="5" fill="white"/><circle cx="200" cy="160" r="5" fill="white"/>
      <circle cx="-200" cy="160" r="5" fill="white"/><circle cx="100" cy="240" r="5" fill="white"/>
      <circle cx="-100" cy="240" r="5" fill="white"/><circle cx="0" cy="320" r="5" fill="white"/>
      <circle cx="100" cy="-160" r="4" fill="white" opacity="0.8"/>
      <circle cx="-100" cy="-160" r="4" fill="white" opacity="0.8"/>
      <circle cx="140" cy="0" r="4" fill="white" opacity="0.8"/>
      <circle cx="-140" cy="0" r="4" fill="white" opacity="0.8"/>
    </g>
  </g>
</svg>
